<svg width="59" height="40" viewBox="0 0 59 40" fill="none" xmlns="http://www.w3.org/2000/svg">
<g clip-path="url(#clip0_2043_563)">
<path opacity="0.2" d="M13.1153 1.71299C13.1153 2.66591 12.3439 3.42598 11.4023 3.42598C10.4607 3.42598 9.68933 2.65457 9.68933 1.71299C9.68933 0.771412 10.4607 0 11.4023 0C12.3439 0 13.1153 0.771412 13.1153 1.71299Z" fill="#B2030A"/>
<path opacity="0.47" d="M17.6871 1.71299C17.6871 2.65457 16.9156 3.42598 15.9741 3.42598C15.0325 3.42598 14.2611 2.65457 14.2611 1.71299C14.2611 0.771412 15.0325 0 15.9741 0C16.9156 0 17.6871 0.771412 17.6871 1.71299Z" fill="#B2030A"/>
<path opacity="0.73" d="M22.2588 1.71299C22.2588 2.65457 21.4874 3.42598 20.5458 3.42598C19.6042 3.42598 18.8328 2.65457 18.8328 1.71299C18.8328 0.771412 19.5929 0 20.5458 0C21.4987 0 22.2588 0.771412 22.2588 1.71299Z" fill="#B2030A"/>
<path d="M26.8306 1.71299C26.8306 2.66591 26.0592 3.42598 25.1176 3.42598C24.176 3.42598 23.4046 2.65457 23.4046 1.71299C23.4046 0.771412 24.1647 0 25.1176 0C26.0705 0 26.8306 0.771412 26.8306 1.71299Z" fill="#B2030A"/>
<path opacity="0.2" d="M8.55492 6.28474C8.55492 7.23766 7.7835 7.99773 6.84193 7.99773C5.90035 7.99773 5.12894 7.22631 5.12894 6.28474C5.12894 5.34316 5.90035 4.57175 6.84193 4.57175C7.7835 4.57175 8.55492 5.34316 8.55492 6.28474Z" fill="#F23508"/>
<path opacity="0.36" d="M13.1267 6.28474C13.1267 7.23766 12.3553 7.99773 11.4137 7.99773C10.4721 7.99773 9.70068 7.22631 9.70068 6.28474C9.70068 5.34316 10.4721 4.57175 11.4137 4.57175C12.3553 4.57175 13.1267 5.34316 13.1267 6.28474Z" fill="#F23508"/>
<path opacity="0.52" d="M17.6871 6.28474C17.6871 7.23766 16.9157 7.99773 15.9741 7.99773C15.0325 7.99773 14.2611 7.22631 14.2611 6.28474C14.2611 5.34316 15.0325 4.57175 15.9741 4.57175C16.9157 4.57175 17.6871 5.34316 17.6871 6.28474Z" fill="#F23508"/>
<path opacity="0.68" d="M22.2588 6.28474C22.2588 7.23766 21.4874 7.99773 20.5458 7.99773C19.6043 7.99773 18.8329 7.22631 18.8329 6.28474C18.8329 5.34316 19.6043 4.57175 20.5458 4.57175C21.4874 4.57175 22.2588 5.34316 22.2588 6.28474Z" fill="#F23508"/>
<path opacity="0.84" d="M26.8306 6.28474C26.8306 7.23766 26.0592 7.99773 25.1176 7.99773C24.176 7.99773 23.4046 7.22631 23.4046 6.28474C23.4046 5.34316 24.176 4.57175 25.1176 4.57175C26.0592 4.57175 26.8306 5.34316 26.8306 6.28474Z" fill="#F23508"/>
<path d="M31.4023 6.28474C31.4023 7.23766 30.6309 7.99773 29.6893 7.99773C28.7478 7.99773 27.9763 7.22631 27.9763 6.28474C27.9763 5.34316 28.7478 4.57175 29.6893 4.57175C30.6309 4.57175 31.4023 5.34316 31.4023 6.28474Z" fill="#F23508"/>
<path opacity="0.2" d="M13.1153 10.8565C13.1153 11.8094 12.3439 12.5808 11.4023 12.5808C10.4607 12.5808 9.68933 11.8094 9.68933 10.8565C9.68933 9.90358 10.4607 9.14351 11.4023 9.14351C12.3439 9.14351 13.1153 9.90358 13.1153 10.8565Z" fill="#EBC504"/>
<path opacity="0.36" d="M17.6871 10.8565C17.6871 11.8094 16.9156 12.5808 15.9741 12.5808C15.0325 12.5808 14.2611 11.8094 14.2611 10.8565C14.2611 9.90358 15.0325 9.14351 15.9741 9.14351C16.9156 9.14351 17.6871 9.90358 17.6871 10.8565Z" fill="#EBC504"/>
<path opacity="0.52" d="M22.2588 10.8565C22.2588 11.8094 21.4874 12.5808 20.5458 12.5808C19.6042 12.5808 18.8328 11.8094 18.8328 10.8565C18.8328 9.90358 19.6042 9.14351 20.5458 9.14351C21.4874 9.14351 22.2588 9.90358 22.2588 10.8565Z" fill="#EBC504"/>
<path opacity="0.68" d="M26.8306 10.8565C26.8306 11.8094 26.0592 12.5808 25.1176 12.5808C24.176 12.5808 23.4046 11.8094 23.4046 10.8565C23.4046 9.90358 24.176 9.14351 25.1176 9.14351C26.0592 9.14351 26.8306 9.90358 26.8306 10.8565Z" fill="#EBC504"/>
<path opacity="0.84" d="M31.4023 10.8565C31.4023 11.8094 30.6423 12.5808 29.6893 12.5808C28.7364 12.5808 27.9763 11.8094 27.9763 10.8565C27.9763 9.90358 28.7478 9.14351 29.6893 9.14351C30.6309 9.14351 31.4023 9.90358 31.4023 10.8565Z" fill="#EBC504"/>
<path d="M35.9741 10.8565C35.9741 11.8094 35.214 12.5808 34.2611 12.5808C33.3082 12.5808 32.5481 11.8094 32.5481 10.8565C32.5481 9.90358 33.3195 9.14351 34.2611 9.14351C35.2027 9.14351 35.9741 9.90358 35.9741 10.8565Z" fill="#EBC504"/>
<path opacity="0.2" d="M8.55492 15.4282C8.55492 16.3698 7.7835 17.1412 6.84193 17.1412C5.90035 17.1412 5.12894 16.3698 5.12894 15.4282C5.12894 14.4867 5.90035 13.7153 6.84193 13.7153C7.7835 13.7153 8.55492 14.4867 8.55492 15.4282Z" fill="#BCFF04"/>
<path opacity="0.31" d="M13.1267 15.4282C13.1267 16.3698 12.3553 17.1412 11.4137 17.1412C10.4721 17.1412 9.70068 16.3698 9.70068 15.4282C9.70068 14.4867 10.4721 13.7153 11.4137 13.7153C12.3553 13.7153 13.1267 14.4867 13.1267 15.4282Z" fill="#BCFF04"/>
<path opacity="0.43" d="M17.6984 15.4282C17.6984 16.3698 16.927 17.1412 15.9854 17.1412C15.0438 17.1412 14.2724 16.3698 14.2724 15.4282C14.2724 14.4867 15.0438 13.7153 15.9854 13.7153C16.927 13.7153 17.6984 14.4867 17.6984 15.4282Z" fill="#BCFF04"/>
<path opacity="0.54" d="M22.2702 15.4282C22.2702 16.3698 21.4988 17.1412 20.5572 17.1412C19.6156 17.1412 18.8442 16.3698 18.8442 15.4282C18.8442 14.4867 19.6156 13.7153 20.5572 13.7153C21.4988 13.7153 22.2702 14.4867 22.2702 15.4282Z" fill="#BCFF04"/>
<path opacity="0.66" d="M26.8419 15.4282C26.8419 16.3698 26.0705 17.1412 25.1289 17.1412C24.1874 17.1412 23.416 16.3698 23.416 15.4282C23.416 14.4867 24.1874 13.7153 25.1289 13.7153C26.0705 13.7153 26.8419 14.4867 26.8419 15.4282Z" fill="#BCFF04"/>
<path opacity="0.77" d="M31.4137 15.4282C31.4137 16.3698 30.6423 17.1412 29.7007 17.1412C28.7591 17.1412 27.9877 16.3698 27.9877 15.4282C27.9877 14.4867 28.7591 13.7153 29.7007 13.7153C30.6423 13.7153 31.4137 14.4867 31.4137 15.4282Z" fill="#BCFF04"/>
<path opacity="0.89" d="M35.9854 15.4282C35.9854 16.3698 35.214 17.1412 34.2724 17.1412C33.3309 17.1412 32.5594 16.3698 32.5594 15.4282C32.5594 14.4867 33.3309 13.7153 34.2724 13.7153C35.214 13.7153 35.9854 14.4867 35.9854 15.4282Z" fill="#BCFF04"/>
<path d="M40.5572 15.4282C40.5572 16.3698 39.7858 17.1412 38.8442 17.1412C37.9026 17.1412 37.1312 16.3698 37.1312 15.4282C37.1312 14.4867 37.9026 13.7153 38.8442 13.7153C39.7858 13.7153 40.5572 14.4867 40.5572 15.4282Z" fill="#BCFF04"/>
<path opacity="0.2" d="M3.97182 24.5718C3.97182 25.5133 3.2004 26.2847 2.25883 26.2847C1.31725 26.2847 0.545837 25.5133 0.545837 24.5718C0.545837 23.6302 1.31725 22.8588 2.25883 22.8588C3.2004 22.8588 3.97182 23.6302 3.97182 24.5718Z" fill="#00C2A9"/>
<path opacity="0.3" d="M8.54356 24.5718C8.54356 25.5133 7.77215 26.2847 6.83057 26.2847C5.889 26.2847 5.11758 25.5133 5.11758 24.5718C5.11758 23.6302 5.889 22.8588 6.83057 22.8588C7.77215 22.8588 8.54356 23.6302 8.54356 24.5718Z" fill="#00C2A9"/>
<path opacity="0.4" d="M13.1153 24.5718C13.1153 25.5133 12.3439 26.2847 11.4023 26.2847C10.4607 26.2847 9.68933 25.5133 9.68933 24.5718C9.68933 23.6302 10.4607 22.8588 11.4023 22.8588C12.3439 22.8588 13.1153 23.6302 13.1153 24.5718Z" fill="#00C2A9"/>
<path opacity="0.5" d="M17.6871 24.5718C17.6871 25.5133 16.9157 26.2847 15.9741 26.2847C15.0325 26.2847 14.2611 25.5133 14.2611 24.5718C14.2611 23.6302 15.0325 22.8588 15.9741 22.8588C16.9157 22.8588 17.6871 23.6302 17.6871 24.5718Z" fill="#00C2A9"/>
<path opacity="0.6" d="M22.2588 24.5718C22.2588 25.5133 21.4874 26.2847 20.5458 26.2847C19.6043 26.2847 18.8329 25.5133 18.8329 24.5718C18.8329 23.6302 19.6043 22.8588 20.5458 22.8588C21.4874 22.8588 22.2588 23.6302 22.2588 24.5718Z" fill="#00C2A9"/>
<path opacity="0.7" d="M26.8306 24.5718C26.8306 25.5133 26.0592 26.2847 25.1176 26.2847C24.176 26.2847 23.4046 25.5133 23.4046 24.5718C23.4046 23.6302 24.176 22.8588 25.1176 22.8588C26.0592 22.8588 26.8306 23.6302 26.8306 24.5718Z" fill="#00C2A9"/>
<path opacity="0.8" d="M31.4137 24.5718C31.4137 25.5133 30.6423 26.2847 29.7007 26.2847C28.7591 26.2847 27.9877 25.5133 27.9877 24.5718C27.9877 23.6302 28.7591 22.8588 29.7007 22.8588C30.6423 22.8588 31.4137 23.6302 31.4137 24.5718Z" fill="#00C2A9"/>
<path opacity="0.9" d="M35.9854 24.5718C35.9854 25.5133 35.214 26.2847 34.2724 26.2847C33.3309 26.2847 32.5594 25.5133 32.5594 24.5718C32.5594 23.6302 33.3309 22.8588 34.2724 22.8588C35.214 22.8588 35.9854 23.6302 35.9854 24.5718Z" fill="#00C2A9"/>
<path d="M40.5572 24.5718C40.5572 25.5133 39.7858 26.2847 38.8442 26.2847C37.9026 26.2847 37.1312 25.5133 37.1312 24.5718C37.1312 23.6302 37.9026 22.8588 38.8442 22.8588C39.7858 22.8588 40.5572 23.6302 40.5572 24.5718Z" fill="#00C2A9"/>
<path opacity="0.2" d="M8.55492 29.1435C8.55492 30.0851 7.7835 30.8565 6.84193 30.8565C5.90035 30.8565 5.12894 30.0964 5.12894 29.1435C5.12894 28.1906 5.90035 27.4305 6.84193 27.4305C7.7835 27.4305 8.55492 28.2019 8.55492 29.1435Z" fill="#0058D4"/>
<path opacity="0.33" d="M13.1267 29.1435C13.1267 30.0851 12.3553 30.8565 11.4137 30.8565C10.4721 30.8565 9.70068 30.0964 9.70068 29.1435C9.70068 28.1906 10.4721 27.4305 11.4137 27.4305C12.3553 27.4305 13.1267 28.2019 13.1267 29.1435Z" fill="#0058D4"/>
<path opacity="0.47" d="M17.6871 29.1435C17.6871 30.0851 16.9157 30.8565 15.9741 30.8565C15.0325 30.8565 14.2611 30.0964 14.2611 29.1435C14.2611 28.1906 15.0325 27.4305 15.9741 27.4305C16.9157 27.4305 17.6871 28.2019 17.6871 29.1435Z" fill="#0058D4"/>
<path opacity="0.6" d="M22.2588 29.1435C22.2588 30.0851 21.4874 30.8565 20.5458 30.8565C19.6043 30.8565 18.8329 30.0964 18.8329 29.1435C18.8329 28.1906 19.6043 27.4305 20.5458 27.4305C21.4874 27.4305 22.2588 28.2019 22.2588 29.1435Z" fill="#0058D4"/>
<path opacity="0.73" d="M26.8306 29.1435C26.8306 30.0851 26.0705 30.8565 25.1176 30.8565C24.1647 30.8565 23.4046 30.0964 23.4046 29.1435C23.4046 28.1906 24.176 27.4305 25.1176 27.4305C26.0592 27.4305 26.8306 28.2019 26.8306 29.1435Z" fill="#0058D4"/>
<path opacity="0.87" d="M31.4023 29.1435C31.4023 30.0851 30.6423 30.8565 29.6893 30.8565C28.7364 30.8565 27.9763 30.0964 27.9763 29.1435C27.9763 28.1906 28.7478 27.4305 29.6893 27.4305C30.6309 27.4305 31.4023 28.2019 31.4023 29.1435Z" fill="#0058D4"/>
<path d="M35.9741 29.1435C35.9741 30.0851 35.214 30.8565 34.2611 30.8565C33.3082 30.8565 32.5481 30.0964 32.5481 29.1435C32.5481 28.1906 33.3195 27.4305 34.2611 27.4305C35.2027 27.4305 35.9741 28.2019 35.9741 29.1435Z" fill="#0058D4"/>
<path opacity="0.2" d="M22.2588 20C22.2588 20.9529 21.4988 21.713 20.5458 21.713C19.5929 21.713 18.8329 20.9416 18.8329 20C18.8329 19.0584 19.6043 18.287 20.5458 18.287C21.4874 18.287 22.2588 19.0471 22.2588 20Z" fill="#37AA0B"/>
<path opacity="0.36" d="M26.8306 20C26.8306 20.9529 26.0705 21.713 25.1176 21.713C24.1647 21.713 23.4046 20.9416 23.4046 20C23.4046 19.0584 24.176 18.287 25.1176 18.287C26.0592 18.287 26.8306 19.0471 26.8306 20Z" fill="#37AA0B"/>
<path opacity="0.52" d="M31.4023 20C31.4023 20.9529 30.6423 21.713 29.6893 21.713C28.7364 21.713 27.9763 20.9416 27.9763 20C27.9763 19.0584 28.7478 18.287 29.6893 18.287C30.6309 18.287 31.4023 19.0471 31.4023 20Z" fill="#37AA0B"/>
<path opacity="0.68" d="M35.9741 20C35.9741 20.9529 35.214 21.713 34.2611 21.713C33.3082 21.713 32.5481 20.9416 32.5481 20C32.5481 19.0584 33.3195 18.287 34.2611 18.287C35.2027 18.287 35.9741 19.0471 35.9741 20Z" fill="#37AA0B"/>
<path opacity="0.84" d="M40.5458 20C40.5458 20.9529 39.7858 21.713 38.8329 21.713C37.8799 21.713 37.1199 20.9416 37.1199 20C37.1199 19.0584 37.8913 18.287 38.8329 18.287C39.7744 18.287 40.5458 19.0471 40.5458 20Z" fill="#37AA0B"/>
<path d="M45.1176 20C45.1176 20.9529 44.3575 21.713 43.4046 21.713C42.4517 21.713 41.6916 20.9416 41.6916 20C41.6916 19.0584 42.463 18.287 43.4046 18.287C44.3462 18.287 45.1176 19.0471 45.1176 20Z" fill="#37AA0B"/>
<path opacity="0.2" d="M17.6871 33.7153C17.6871 34.6568 16.927 35.4283 15.9741 35.4283C15.0212 35.4283 14.2611 34.6568 14.2611 33.7153C14.2611 32.7737 15.0325 32.0023 15.9741 32.0023C16.9157 32.0023 17.6871 32.7737 17.6871 33.7153Z" fill="#1900D4"/>
<path opacity="0.47" d="M22.2588 33.7153C22.2588 34.6568 21.4874 35.4283 20.5458 35.4283C19.6043 35.4283 18.8329 34.6568 18.8329 33.7153C18.8329 32.7737 19.6043 32.0023 20.5458 32.0023C21.4874 32.0023 22.2588 32.7737 22.2588 33.7153Z" fill="#1900D4"/>
<path opacity="0.73" d="M26.8306 33.7153C26.8306 34.6568 26.0592 35.4283 25.1176 35.4283C24.176 35.4283 23.4046 34.6568 23.4046 33.7153C23.4046 32.7737 24.176 32.0023 25.1176 32.0023C26.0592 32.0023 26.8306 32.7737 26.8306 33.7153Z" fill="#1900D4"/>
<path d="M31.4024 33.7153C31.4024 34.6568 30.6309 35.4283 29.6894 35.4283C28.7478 35.4283 27.9764 34.6568 27.9764 33.7153C27.9764 32.7737 28.7478 32.0023 29.6894 32.0023C30.6309 32.0023 31.4024 32.7737 31.4024 33.7153Z" fill="#1900D4"/>
<path opacity="0.2" d="M13.1153 38.287C13.1153 39.2286 12.3439 40 11.4023 40C10.4607 40 9.68933 39.2286 9.68933 38.287C9.68933 37.3454 10.4607 36.574 11.4023 36.574C12.3439 36.574 13.1153 37.3454 13.1153 38.287Z" fill="#9B1398"/>
<path opacity="0.47" d="M17.6871 38.287C17.6871 39.2286 16.9156 40 15.9741 40C15.0325 40 14.2611 39.2286 14.2611 38.287C14.2611 37.3454 15.0325 36.574 15.9741 36.574C16.9156 36.574 17.6871 37.3454 17.6871 38.287Z" fill="#9B1398"/>
<path opacity="0.73" d="M22.2588 38.287C22.2588 39.2286 21.4874 40 20.5458 40C19.6042 40 18.8328 39.2286 18.8328 38.287C18.8328 37.3454 19.5929 36.574 20.5458 36.574C21.4987 36.574 22.2588 37.3454 22.2588 38.287Z" fill="#9B1398"/>
<path d="M26.8306 38.287C26.8306 39.2286 26.0592 40 25.1176 40C24.176 40 23.4046 39.2286 23.4046 38.287C23.4046 37.3454 24.1647 36.574 25.1176 36.574C26.0705 36.574 26.8306 37.3454 26.8306 38.287Z" fill="#9B1398"/>
<path d="M31.4023 1.71299C31.4023 2.66591 30.6309 3.42598 29.6893 3.42598C28.7478 3.42598 27.9763 2.65457 27.9763 1.71299C27.9763 0.771412 28.7478 0 29.6893 0C30.6309 0 31.4023 0.771412 31.4023 1.71299ZM34.2611 0C33.3195 0 32.5481 0.771412 32.5481 1.71299C32.5481 2.65457 33.3195 3.42598 34.2611 3.42598C35.2027 3.42598 35.9741 2.65457 35.9741 1.71299C35.9741 0.771412 35.214 0 34.2611 0ZM38.8328 0C37.8913 0 37.1199 0.771412 37.1199 1.71299C37.1199 2.65457 37.8913 3.42598 38.8328 3.42598C39.7744 3.42598 40.5458 2.65457 40.5458 1.71299C40.5458 0.771412 39.7744 0 38.8328 0ZM34.2611 4.57175C33.3195 4.57175 32.5481 5.34317 32.5481 6.28474C32.5481 7.22632 33.3195 7.99773 34.2611 7.99773C35.2027 7.99773 35.9741 7.22632 35.9741 6.28474C35.9741 5.34317 35.214 4.57175 34.2611 4.57175ZM38.8328 4.57175C37.8913 4.57175 37.1199 5.34317 37.1199 6.28474C37.1199 7.22632 37.8913 7.99773 38.8328 7.99773C39.7744 7.99773 40.5458 7.22632 40.5458 6.28474C40.5458 5.34317 39.7744 4.57175 38.8328 4.57175ZM43.4046 4.57175C42.463 4.57175 41.6916 5.34317 41.6916 6.28474C41.6916 7.22632 42.463 7.99773 43.4046 7.99773C44.3462 7.99773 45.1176 7.22632 45.1176 6.28474C45.1176 5.34317 44.3575 4.57175 43.4046 4.57175ZM38.8328 9.14351C37.8913 9.14351 37.1199 9.90357 37.1199 10.8565C37.1199 11.8094 37.8913 12.5808 38.8328 12.5808C39.7744 12.5808 40.5458 11.8094 40.5458 10.8565C40.5458 9.90357 39.7744 9.14351 38.8328 9.14351ZM43.4046 9.14351C42.463 9.14351 41.6916 9.90357 41.6916 10.8565C41.6916 11.8094 42.463 12.5808 43.4046 12.5808C44.3462 12.5808 45.1176 11.8094 45.1176 10.8565C45.1176 9.90357 44.3575 9.14351 43.4046 9.14351ZM47.9764 9.14351C47.0348 9.14351 46.2634 9.90357 46.2634 10.8565C46.2634 11.8094 47.0348 12.5808 47.9764 12.5808C48.9179 12.5808 49.6893 11.8094 49.6893 10.8565C49.6893 9.90357 48.9293 9.14351 47.9764 9.14351ZM43.4046 13.7153C42.463 13.7153 41.6916 14.4867 41.6916 15.4282C41.6916 16.3698 42.463 17.1412 43.4046 17.1412C44.3462 17.1412 45.1176 16.3698 45.1176 15.4282C45.1176 14.4867 44.3575 13.7153 43.4046 13.7153ZM47.9764 13.7153C47.0348 13.7153 46.2634 14.4867 46.2634 15.4282C46.2634 16.3698 47.0348 17.1412 47.9764 17.1412C48.9179 17.1412 49.6893 16.3698 49.6893 15.4282C49.6893 14.4867 48.9293 13.7153 47.9764 13.7153ZM52.5481 13.7153C51.5952 13.7153 50.8351 14.4867 50.8351 15.4282C50.8351 16.3698 51.5952 17.1412 52.5481 17.1412C53.501 17.1412 54.2611 16.3698 54.2611 15.4282C54.2611 14.4867 53.4897 13.7153 52.5481 13.7153ZM43.4046 22.8588C42.463 22.8588 41.6916 23.6302 41.6916 24.5718C41.6916 25.5133 42.463 26.2847 43.4046 26.2847C44.3462 26.2847 45.1176 25.5133 45.1176 24.5718C45.1176 23.6302 44.3575 22.8588 43.4046 22.8588ZM47.9764 22.8588C47.0348 22.8588 46.2634 23.6302 46.2634 24.5718C46.2634 25.5133 47.0348 26.2847 47.9764 26.2847C48.9179 26.2847 49.6893 25.5133 49.6893 24.5718C49.6893 23.6302 48.9293 22.8588 47.9764 22.8588ZM52.5481 22.8588C51.5952 22.8588 50.8351 23.6302 50.8351 24.5718C50.8351 25.5133 51.5952 26.2847 52.5481 26.2847C53.501 26.2847 54.2611 25.5133 54.2611 24.5718C54.2611 23.6302 53.4897 22.8588 52.5481 22.8588ZM38.8328 27.4305C37.8913 27.4305 37.1199 28.2019 37.1199 29.1435C37.1199 30.0851 37.8913 30.8565 38.8328 30.8565C39.7744 30.8565 40.5458 30.0964 40.5458 29.1435C40.5458 28.1906 39.7744 27.4305 38.8328 27.4305ZM47.9764 18.287C47.0348 18.287 46.2634 19.0471 46.2634 20C46.2634 20.9529 47.0348 21.713 47.9764 21.713C48.9179 21.713 49.6893 20.9416 49.6893 20C49.6893 19.0584 48.9293 18.287 47.9764 18.287ZM52.5481 18.287C51.5952 18.287 50.8351 19.0471 50.8351 20C50.8351 20.9529 51.5952 21.713 52.5481 21.713C53.501 21.713 54.2611 20.9416 54.2611 20C54.2611 19.0584 53.4897 18.287 52.5481 18.287ZM57.1312 18.287C56.1783 18.287 55.4182 19.0471 55.4182 20C55.4182 20.9529 56.1896 21.713 57.1312 21.713C58.0728 21.713 58.8442 20.9416 58.8442 20C58.8442 19.0584 58.0728 18.287 57.1312 18.287ZM43.4046 27.4305C42.463 27.4305 41.6916 28.2019 41.6916 29.1435C41.6916 30.0851 42.463 30.8565 43.4046 30.8565C44.3462 30.8565 45.1176 30.0964 45.1176 29.1435C45.1176 28.1906 44.3575 27.4305 43.4046 27.4305ZM47.9764 27.4305C47.0348 27.4305 46.2634 28.2019 46.2634 29.1435C46.2634 30.0851 47.0348 30.8565 47.9764 30.8565C48.9179 30.8565 49.6893 30.0964 49.6893 29.1435C49.6893 28.1906 48.9293 27.4305 47.9764 27.4305ZM34.2611 32.0023C33.3195 32.0023 32.5481 32.7737 32.5481 33.7153C32.5481 34.6568 33.3195 35.4282 34.2611 35.4282C35.2027 35.4282 35.9741 34.6568 35.9741 33.7153C35.9741 32.7737 35.214 32.0023 34.2611 32.0023ZM38.8328 32.0023C37.8913 32.0023 37.1199 32.7737 37.1199 33.7153C37.1199 34.6568 37.8913 35.4282 38.8328 35.4282C39.7744 35.4282 40.5458 34.6568 40.5458 33.7153C40.5458 32.7737 39.7744 32.0023 38.8328 32.0023ZM43.4046 32.0023C42.463 32.0023 41.6916 32.7737 41.6916 33.7153C41.6916 34.6568 42.463 35.4282 43.4046 35.4282C44.3462 35.4282 45.1176 34.6568 45.1176 33.7153C45.1176 32.7737 44.3575 32.0023 43.4046 32.0023ZM29.6893 36.574C28.7364 36.574 27.9763 37.3454 27.9763 38.287C27.9763 39.2286 28.7478 40 29.6893 40C30.6309 40 31.4023 39.2286 31.4023 38.287C31.4023 37.3454 30.6309 36.574 29.6893 36.574ZM34.2611 36.574C33.3195 36.574 32.5481 37.3454 32.5481 38.287C32.5481 39.2286 33.3195 40 34.2611 40C35.2027 40 35.9741 39.2286 35.9741 38.287C35.9741 37.3454 35.214 36.574 34.2611 36.574ZM38.8328 36.574C37.8913 36.574 37.1199 37.3454 37.1199 38.287C37.1199 39.2286 37.8913 40 38.8328 40C39.7744 40 40.5458 39.2286 40.5458 38.287C40.5458 37.3454 39.7744 36.574 38.8328 36.574Z" fill="white"/>
</g>
<defs>
<clipPath id="clip0_2043_563">
<rect width="59" height="40" fill="white"/>
</clipPath>
</defs>
</svg>
